<svg id="Ebene_1" data-name="Ebene 1" xmlns="http://www.w3.org/2000/svg" width="500" height="500" viewBox="0 0 500 500">
  <defs>
    <style>
      .cls-1 {
        fill: #fff;
      }
    </style>
  </defs>
  <title>icon</title>
  <path class="cls-1" d="M250,0C111.93,0,0,111.93,0,250S111.93,500,250,500,500,388.07,500,250,388.07,0,250,0Zm0,88A162.063,162.063,0,0,1,406.11567,206.57421a9.84671,9.84671,0,0,1-14.43516,11.10235l-184.5179-106.534a9.85541,9.85541,0,0,1,2.51994-18.08519A162.31829,162.31829,0,0,1,250,88ZM88,250a161.4526,161.4526,0,0,1,46.06966-113.15346A9.85307,9.85307,0,0,1,150.97,143.73065V356.2753a9.85307,9.85307,0,0,1-16.901,6.88338A161.47773,161.47773,0,0,1,88,250ZM250,412a162.28992,162.28992,0,0,1-40.52931-5.10928,9.85563,9.85563,0,0,1-2.51321-18.083l184.7736-106.68189a9.84719,9.84719,0,0,1,14.43805,11.09295A162.06635,162.06635,0,0,1,250,412Z"/>
</svg>
